<svg xmlns="http://www.w3.org/2000/svg" viewBox="0 0 1200 760" role="img" aria-labelledby="title desc"><title id="title">InferLab v0.21 overlap-safe service credential rotation proof</title><desc id="desc">A four-stage timeline shows adding overlapping credentials, rolling control and gateway signers, revoking key-a, and rejecting old credentials while preserving quorum and route revision 2.</desc><defs>
          <marker id="arrow" viewBox="0 0 10 10" refX="9" refY="5" markerWidth="7" markerHeight="7" orient="auto-start-reverse"><path d="M 0 0 L 10 5 L 0 10 z"/></marker>
        </defs>
        <style>
          .background{fill:#f8fafc}.before{fill:#eff6ff;stroke:#3b82f6;stroke-width:1.5}.overlap{fill:#fefce8;stroke:#eab308;stroke-width:1.5}.rotated{fill:#ecfdf5;stroke:#10b981;stroke-width:1.5}.revoked{fill:#fff1f2;stroke:#f43f5e;stroke-width:1.5}.proof{fill:#ecfdf5;stroke:#10b981;stroke-width:1.5}.metric{fill:#fff;stroke:#cbd5e1;stroke-width:1.5}.arrow{stroke:#475569;stroke-width:2;fill:none}text{font-family:ui-sans-serif,system-ui,-apple-system,BlinkMacSystemFont,"Segoe UI",sans-serif;fill:#0f172a}.title{font-size:28px;font-weight:700}.subtitle{font-size:15px;fill:#475569}.stage-title{font-size:17px;font-weight:700;text-anchor:middle}.stage-label{font-size:12px;fill:#475569}.stage-value{font-size:13px;font-weight:700;text-anchor:end}.stage-foot{font-size:12px;fill:#475569;text-anchor:middle}.edge-label{font-size:11px;fill:#64748b;text-anchor:middle}.section{font-size:18px;font-weight:700}.metric-label{font-size:12px;fill:#64748b;text-anchor:middle}.metric-value{font-size:23px;font-weight:700;text-anchor:middle}.proof-title{font-size:22px;font-weight:700;text-anchor:middle;fill:#047857}.proof-detail{font-size:13px;text-anchor:middle;fill:#065f46}.foot{font-size:12px;fill:#64748b}
        </style><rect width="1200" height="760" class="background"/><text x="50" y="54" class="title">v0.21 · overlap-safe service credential rotation</text><text x="50" y="82" class="subtitle">Initial leader node-a · final leader node-a · final term 3 · loopback evidence</text><text x="50" y="125" class="section">Trust expansion → signer rotation → credential revocation</text><rect x="50" y="168" width="248" height="184" rx="12" class="before"/><text x="174" y="200" class="stage-title">1 · prepare overlap</text><text x="70" y="238" class="stage-label">control signers</text><text x="278" y="238" class="stage-value">A / A / A</text><text x="70" y="273" class="stage-label">gateway signer</text><text x="278" y="273" class="stage-value">A</text><text x="70" y="308" class="stage-label">verification state</text><text x="278" y="308" class="stage-value">trust A + B</text><text x="174" y="337" class="stage-foot">route revision 2</text><line x1="298" y1="260" x2="342" y2="260" class="arrow" marker-end="url(#arrow)"/><text x="320" y="245" class="edge-label">roll peers</text><rect x="342" y="168" width="248" height="184" rx="12" class="overlap"/><text x="466" y="200" class="stage-title">2 · mixed window</text><text x="362" y="238" class="stage-label">control signers</text><text x="570" y="238" class="stage-value">A + B</text><text x="362" y="273" class="stage-label">gateway signer</text><text x="570" y="273" class="stage-value">A</text><text x="362" y="308" class="stage-label">verification state</text><text x="570" y="308" class="stage-value">accept A + B</text><text x="466" y="337" class="stage-foot">route revision 2</text><line x1="590" y1="260" x2="634" y2="260" class="arrow" marker-end="url(#arrow)"/><text x="612" y="245" class="edge-label">leader last</text><rect x="634" y="168" width="248" height="184" rx="12" class="rotated"/><text x="758" y="200" class="stage-title">3 · finish rotation</text><text x="654" y="238" class="stage-label">control signers</text><text x="862" y="238" class="stage-value">B / B / B</text><text x="654" y="273" class="stage-label">gateway signer</text><text x="862" y="273" class="stage-value">B</text><text x="654" y="308" class="stage-label">verification state</text><text x="862" y="308" class="stage-value">accept A + B</text><text x="758" y="337" class="stage-foot">route revision 2</text><line x1="882" y1="260" x2="926" y2="260" class="arrow" marker-end="url(#arrow)"/><text x="904" y="245" class="edge-label">revoke A</text><rect x="926" y="168" width="248" height="184" rx="12" class="revoked"/><text x="1050" y="200" class="stage-title">4 · close window</text><text x="946" y="238" class="stage-label">control signers</text><text x="1154" y="238" class="stage-value">B / B / B</text><text x="946" y="273" class="stage-label">gateway signer</text><text x="1154" y="273" class="stage-value">B</text><text x="946" y="308" class="stage-label">verification state</text><text x="1154" y="308" class="stage-value">reject A</text><text x="1050" y="337" class="stage-foot">route revision 2</text><text x="50" y="405" class="section">Observed boundary behavior</text><rect x="50" y="430" width="250" height="112" rx="12" class="metric"/><text x="175" y="463" class="metric-label">accepted during overlap</text><text x="175" y="500" class="metric-value">A 10 · B 6</text><text x="175" y="525" class="metric-label">mathematically matched credential</text><rect x="325" y="430" width="250" height="112" rx="12" class="metric"/><text x="450" y="463" class="metric-label">rolling restart checkpoints</text><text x="450" y="500" class="metric-value">6 / 6</text><text x="450" y="525" class="metric-label">three nodes · exactly one leader</text><rect x="600" y="430" width="250" height="112" rx="12" class="metric"/><text x="725" y="463" class="metric-label">revoked-key rejections</text><text x="725" y="500" class="metric-value">2</text><text x="725" y="525" class="metric-label">gateway read + high-term vote</text><rect x="875" y="430" width="275" height="112" rx="12" class="metric"/><text x="1012" y="463" class="metric-label">final durable state</text><text x="1012" y="500" class="metric-value">3 × key-b · r2</text><text x="1012" y="525" class="metric-label">3 replicas agree</text><rect x="50" y="585" width="1100" height="110" rx="14" class="proof"/><text x="600" y="624" class="proof-title">18 / 18 checks passed</text><text x="600" y="655" class="proof-detail">old key-a blocked · current key-b served request in 182.663 ms · SSE in 182.597 ms + DONE</text><text x="600" y="681" class="proof-detail">Bounded verification ring: at most 16 credentials per service and 256 total</text><text x="50" y="733" class="foot">Operational limit: trust and revocation changes still require rolling process restarts; request signatures do not provide transport encryption.</text></svg>