<svg xmlns="http://www.w3.org/2000/svg" width="1200" height="760" viewBox="0 0 1200 760">
  <rect width="100%" height="100%" fill="#0f172a"/>
  <style>
    text { font-family: ui-monospace, SFMono-Regular, Menlo, monospace; fill: #e2e8f0; }
    .muted { fill: #94a3b8; font-size: 13px; }
    .event { fill: #cbd5e1; font-size: 12px; }
    .metric { fill: #e2e8f0; font-size: 15px; }
  </style>
  <text x="90" y="34" font-size="24" font-weight="700">InferLab v0.0.9 — continuous chaos recovery</text>
  <text x="90" y="56" class="muted">open-loop requests continue while workers die, slow down, disconnect, and recover</text>
  <line x1="210.47" y1="58" x2="210.47" y2="565" stroke="#64748b" stroke-width="1" stroke-dasharray="4 4"/><text x="214.47" y="91" class="event">kill A</text><line x1="358.33" y1="58" x2="358.33" y2="565" stroke="#64748b" stroke-width="1" stroke-dasharray="4 4"/><text x="362.33" y="70" class="event">heal A</text><line x1="505.12" y1="58" x2="505.12" y2="565" stroke="#64748b" stroke-width="1" stroke-dasharray="4 4"/><text x="509.12" y="91" class="event">slow B</text><line x1="653.30" y1="58" x2="653.30" y2="565" stroke="#64748b" stroke-width="1" stroke-dasharray="4 4"/><text x="657.30" y="70" class="event">heal B</text><line x1="800.17" y1="58" x2="800.17" y2="565" stroke="#64748b" stroke-width="1" stroke-dasharray="4 4"/><text x="804.17" y="91" class="event">disconnect C</text><line x1="947.75" y1="58" x2="947.75" y2="565" stroke="#64748b" stroke-width="1" stroke-dasharray="4 4"/><text x="951.75" y="70" class="event">reconnect C</text>
  <line x1="90" y1="335" x2="1155" y2="335" stroke="#64748b"/>
  <line x1="90" y1="125" x2="90" y2="335" stroke="#64748b"/>
  <text x="78" y="129" text-anchor="end" class="muted">9</text>
  <text x="78" y="339" text-anchor="end" class="muted">0</text>
  <text x="90" y="111" class="muted">requests / 500 ms</text>
  <rect x="91.00" y="125.00" width="27.47" height="210.00" fill="#4ade80" opacity="0.72"/><rect x="120.47" y="125.00" width="27.47" height="210.00" fill="#4ade80" opacity="0.72"/><rect x="149.94" y="125.00" width="27.47" height="210.00" fill="#4ade80" opacity="0.72"/><rect x="179.41" y="125.00" width="27.47" height="210.00" fill="#4ade80" opacity="0.72"/><rect x="208.88" y="125.00" width="27.47" height="210.00" fill="#4ade80" opacity="0.72"/><rect x="238.36" y="125.00" width="27.47" height="210.00" fill="#4ade80" opacity="0.72"/><rect x="267.83" y="125.00" width="27.47" height="210.00" fill="#4ade80" opacity="0.72"/><rect x="297.30" y="125.00" width="27.47" height="210.00" fill="#4ade80" opacity="0.72"/><rect x="326.77" y="125.00" width="27.47" height="210.00" fill="#4ade80" opacity="0.72"/><rect x="356.24" y="125.00" width="27.47" height="210.00" fill="#4ade80" opacity="0.72"/><rect x="385.71" y="125.00" width="27.47" height="210.00" fill="#4ade80" opacity="0.72"/><rect x="415.18" y="125.00" width="27.47" height="210.00" fill="#4ade80" opacity="0.72"/><rect x="444.65" y="125.00" width="27.47" height="210.00" fill="#4ade80" opacity="0.72"/><rect x="474.12" y="125.00" width="27.47" height="210.00" fill="#4ade80" opacity="0.72"/><rect x="503.60" y="125.00" width="27.47" height="210.00" fill="#4ade80" opacity="0.72"/><rect x="533.07" y="125.00" width="27.47" height="210.00" fill="#4ade80" opacity="0.72"/><rect x="562.54" y="125.00" width="27.47" height="210.00" fill="#4ade80" opacity="0.72"/><rect x="592.01" y="125.00" width="27.47" height="210.00" fill="#4ade80" opacity="0.72"/><rect x="621.48" y="125.00" width="27.47" height="210.00" fill="#4ade80" opacity="0.72"/><rect x="650.95" y="125.00" width="27.47" height="210.00" fill="#4ade80" opacity="0.72"/><rect x="680.42" y="125.00" width="27.47" height="210.00" fill="#4ade80" opacity="0.72"/><rect x="709.89" y="125.00" width="27.47" height="210.00" fill="#4ade80" opacity="0.72"/><rect x="739.36" y="125.00" width="27.47" height="210.00" fill="#4ade80" opacity="0.72"/><rect x="768.84" y="125.00" width="27.47" height="210.00" fill="#4ade80" opacity="0.72"/><rect x="798.31" y="125.00" width="27.47" height="210.00" fill="#4ade80" opacity="0.72"/><rect x="827.78" y="125.00" width="27.47" height="210.00" fill="#4ade80" opacity="0.72"/><rect x="857.25" y="125.00" width="27.47" height="210.00" fill="#4ade80" opacity="0.72"/><rect x="886.72" y="125.00" width="27.47" height="210.00" fill="#4ade80" opacity="0.72"/><rect x="916.19" y="125.00" width="27.47" height="210.00" fill="#4ade80" opacity="0.72"/><rect x="945.66" y="125.00" width="27.47" height="210.00" fill="#4ade80" opacity="0.72"/><rect x="975.13" y="125.00" width="27.47" height="210.00" fill="#4ade80" opacity="0.72"/><rect x="1004.60" y="125.00" width="27.47" height="210.00" fill="#4ade80" opacity="0.72"/><rect x="1034.08" y="125.00" width="27.47" height="210.00" fill="#4ade80" opacity="0.72"/><rect x="1063.55" y="125.00" width="27.47" height="210.00" fill="#4ade80" opacity="0.72"/><rect x="1093.02" y="125.00" width="27.47" height="210.00" fill="#4ade80" opacity="0.72"/><rect x="1122.49" y="125.00" width="27.47" height="210.00" fill="#4ade80" opacity="0.72"/><rect x="1151.96" y="335.00" width="2.04" height="0.00" fill="#4ade80" opacity="0.72"/>
  <path d="M 104.74 329.18 L 134.21 329.70 L 163.68 329.82 L 193.15 329.69 L 222.62 328.77 L 252.09 329.24 L 281.56 327.78 L 311.03 326.25 L 340.50 329.43 L 369.98 329.91 L 399.45 328.43 L 428.92 329.63 L 458.39 329.64 L 487.86 329.42 L 517.33 281.52 L 546.80 329.47 L 576.27 284.16 L 605.74 329.70 L 635.22 282.39 L 664.69 329.73 L 694.16 329.74 L 723.63 329.74 L 753.10 329.76 L 782.57 329.61 L 812.04 327.00 L 841.51 329.55 L 870.98 327.97 L 900.46 326.47 L 929.93 329.84 L 959.40 329.66 L 988.87 329.78 L 1018.34 329.72 L 1047.81 329.72 L 1077.28 329.78 L 1106.75 329.55 L 1136.22 329.75" fill="none" stroke="#38bdf8" stroke-width="2.5"/>
  <text x="1155" y="111" text-anchor="end" class="muted">blue line: p95 latency · ceiling 700 ms</text>
  <line x1="90.00" y1="335" x2="90.00" y2="342" stroke="#64748b"/><text x="90.00" y="361" text-anchor="middle" class="muted">0s</text><line x1="207.88" y1="335" x2="207.88" y2="342" stroke="#64748b"/><text x="207.88" y="361" text-anchor="middle" class="muted">2s</text><line x1="325.77" y1="335" x2="325.77" y2="342" stroke="#64748b"/><text x="325.77" y="361" text-anchor="middle" class="muted">4s</text><line x1="443.65" y1="335" x2="443.65" y2="342" stroke="#64748b"/><text x="443.65" y="361" text-anchor="middle" class="muted">6s</text><line x1="561.54" y1="335" x2="561.54" y2="342" stroke="#64748b"/><text x="561.54" y="361" text-anchor="middle" class="muted">8s</text><line x1="679.42" y1="335" x2="679.42" y2="342" stroke="#64748b"/><text x="679.42" y="361" text-anchor="middle" class="muted">10s</text><line x1="797.31" y1="335" x2="797.31" y2="342" stroke="#64748b"/><text x="797.31" y="361" text-anchor="middle" class="muted">12s</text><line x1="915.19" y1="335" x2="915.19" y2="342" stroke="#64748b"/><text x="915.19" y="361" text-anchor="middle" class="muted">14s</text><line x1="1033.08" y1="335" x2="1033.08" y2="342" stroke="#64748b"/><text x="1033.08" y="361" text-anchor="middle" class="muted">16s</text><line x1="1150.96" y1="335" x2="1150.96" y2="342" stroke="#64748b"/><text x="1150.96" y="361" text-anchor="middle" class="muted">18s</text>
  <rect x="90" y="370" width="12" height="12" fill="#4ade80" opacity="0.72"/>
  <text x="108" y="381" class="muted">success</text>
  <rect x="185" y="370" width="12" height="12" fill="#fb7185" opacity="0.92"/>
  <text x="203" y="381" class="muted">error</text>
  <line x1="270" y1="376" x2="294" y2="376" stroke="#38bdf8" stroke-width="2.5"/>
  <text x="302" y="381" class="muted">p95 latency</text>
  <text x="78" y="437" text-anchor="end" class="muted">worker-a</text><rect x="90.00" y="415" width="135.58" height="34" fill="#4ade80" opacity="0.82"/><rect x="225.58" y="415" width="41.55" height="34" fill="#fb7185" opacity="0.82"/><rect x="267.13" y="415" width="5.89" height="34" fill="#fbbf24" opacity="0.82"/><rect x="273.02" y="415" width="41.26" height="34" fill="#fb7185" opacity="0.82"/><rect x="314.28" y="415" width="5.89" height="34" fill="#fbbf24" opacity="0.82"/><rect x="320.17" y="415" width="41.25" height="34" fill="#fb7185" opacity="0.82"/><rect x="361.43" y="415" width="5.90" height="34" fill="#fbbf24" opacity="0.82"/><rect x="367.33" y="415" width="787.67" height="34" fill="#4ade80" opacity="0.82"/><text x="78" y="489" text-anchor="end" class="muted">worker-b</text><rect x="90.00" y="467" width="448.12" height="34" fill="#4ade80" opacity="0.82"/><rect x="538.12" y="467" width="47.21" height="34" fill="#fb7185" opacity="0.82"/><rect x="585.33" y="467" width="11.84" height="34" fill="#fbbf24" opacity="0.82"/><rect x="597.17" y="467" width="41.21" height="34" fill="#fb7185" opacity="0.82"/><rect x="638.38" y="467" width="11.84" height="34" fill="#fbbf24" opacity="0.82"/><rect x="650.22" y="467" width="41.30" height="34" fill="#fb7185" opacity="0.82"/><rect x="691.51" y="467" width="5.88" height="34" fill="#fbbf24" opacity="0.82"/><rect x="697.39" y="467" width="457.61" height="34" fill="#4ade80" opacity="0.82"/><text x="78" y="541" text-anchor="end" class="muted">worker-c</text><rect x="90.00" y="519" width="725.13" height="34" fill="#4ade80" opacity="0.82"/><rect x="815.13" y="519" width="41.42" height="34" fill="#fb7185" opacity="0.82"/><rect x="856.55" y="519" width="5.74" height="34" fill="#fbbf24" opacity="0.82"/><rect x="862.29" y="519" width="41.26" height="34" fill="#fb7185" opacity="0.82"/><rect x="903.54" y="519" width="6.06" height="34" fill="#fbbf24" opacity="0.82"/><rect x="909.60" y="519" width="41.26" height="34" fill="#fb7185" opacity="0.82"/><rect x="950.86" y="519" width="5.90" height="34" fill="#fbbf24" opacity="0.82"/><rect x="956.75" y="519" width="198.25" height="34" fill="#4ade80" opacity="0.82"/>
  <text x="90" y="600" class="metric">Detection: A 256 ms · B 560 ms · C 254 ms</text>
  <text x="90" y="628" class="metric">Recovery after heal: A 153 ms · B 748 ms · C 153 ms · mean MTTR 2860 ms</text>
  <text x="90" y="656" class="metric">Attempts: 336 = 324 originals + 12 retries · amplification 1.037×</text>
  <text x="90" y="684" class="metric">Bounds: queue 0/6 · executing 2/6 · max latency 178.3/700 ms deadline</text>
  <text x="90" y="724" class="muted">Circuit lanes: green closed · red open · yellow half-open. Event lines are actual harness timestamps.</text>
</svg>
